<?xml version="1.0" encoding="UTF-8"?>
<svg id="Layer_1" xmlns="http://www.w3.org/2000/svg" version="1.1" viewBox="0 0 841.89 595.28">
  <defs>
    <style>
      .st0 {
        font-family: NeueHaasDisplay-MediumItalic, 'Neue Haas Grotesk Display Pro';
        font-size: 29.61px;
        font-style: italic;
        font-weight: 500;
        letter-spacing: .2em;
      }

      .st0, .st1 {
        fill: #010101;
      }

      .st2 {
        fill: #29ade3;
        fill-rule: evenodd;
      }
    </style>
  </defs>
  <path class="st2" d="M190.81,221.05l-14.96,8.78-14.96,8.78-.04-5.93c-15.96,2.2-30.47,6.3-43.52,12.29-27.75,14.05-31.18,32.78-10.27,56.2-24.52-21.23-31.46-40.01-20.81-56.33,14.6-18.85,39.42-30.1,74.44-33.73l-.05-7.2,15.09,8.57,15.09,8.57ZM205.01,344.25l16.76-4.49,16.76-4.49-1.54,5.73c15.97,2.11,31.05,2.02,45.22-.29,30.49-6.18,38.77-23.33,24.83-51.45,18,26.98,19.7,46.93,5.09,59.84-19.08,14.3-45.99,18.54-80.72,12.74l-1.86,6.95-12.27-12.27-12.27-12.27ZM220.68,251.54l32-8.68c2.63-7.13,5.67-14.11,9.12-20.91-45.65,13.11-88.28,35.05-125.49,64.54-.3.24-.61.48-.91.73.33-.19.67-.39,1-.58,24.51-14.27,50.68-25.47,77.91-33.37,2.12-.62,4.25-1.21,6.39-1.79v.05ZM224.8,304.43c-33.81,6.35-67.43,13.64-100.82,21.89,46.12-7.01,92.94-8.14,139.34-3.37,8.47-30.06,21.45-58.66,38.52-84.82-73.46,12.65-143.7,39.69-206.69,79.56,43.99-19.72,90.43-33.45,138.07-40.84l-3.35,10.98c-54.64,10.39-86.92,17.19-154.09,43.76,49.02-15.47,99.42-26.12,150.44-31.81l-1.42,4.65Z"/>
  <g>
    <path class="st1" d="M412.36,327.54l-2.99-22.84h-36.87l-10.75,22.84h-21.64l54.63-106.72h22.09l17.61,106.72h-22.09ZM394.75,257.99l-14.48,30.3h27.02l-3.73-30-1.34-17.02h-.3c-2.98,7.36-5.37,12.94-7.16,16.72Z"/>
    <path class="st1" d="M474.75,265l-12.09,62.54h-19.85l12.09-62.54h-10l2.69-14.03h10l1.64-8.51c2.69-13.93,11.49-20.99,26.42-21.19,3.48,0,7.06.3,10.75.9l-2.99,15.52c-2.09-.3-3.98-.45-5.67-.45-2.79,0-4.85.57-6.19,1.72-1.34,1.15-2.31,3.21-2.91,6.19l-1.19,5.82h22.39l1.79-9.1c2.69-14.03,11.49-21.14,26.42-21.34,3.48,0,7.06.3,10.75.9l-2.98,15.52c-2.09-.3-3.98-.45-5.67-.45-2.79,0-4.85.6-6.19,1.79-1.34,1.19-2.31,3.28-2.91,6.27l-1.34,6.42h13.28l-2.69,14.03h-13.28l-12.09,62.54h-19.85l12.09-62.54h-22.39Z"/>
    <path class="st1" d="M527.14,327.54l14.78-76.57h20l-14.78,76.57h-20ZM544.31,239.03l3.43-18.21h20l-3.43,18.21h-20Z"/>
    <path class="st1" d="M594.31,250.97l-2.24,12.09h.45c3.48-4.97,7.02-8.58,10.6-10.82s8.01-3.36,13.28-3.36c7.66,0,13.43,2.84,17.31,8.51s4.97,12.94,3.28,21.79l-9.25,48.36h-20l8.96-45.97c.99-5.07.57-8.96-1.27-11.64-1.84-2.69-4.9-4.03-9.18-4.03-4.58,0-8.48,1.87-11.72,5.6-3.24,3.73-5.4,8.48-6.49,14.25l-8.06,41.79h-20l14.78-76.57h19.55Z"/>
    <path class="st1" d="M639.98,327.54l14.78-76.57h20l-14.78,76.57h-20ZM657.15,239.03l3.43-18.21h20l-3.43,18.21h-20Z"/>
    <path class="st1" d="M680.73,264.41l2.54-13.43h9.7l4.63-23.88h19.55l-4.63,23.88h12.84l-2.54,13.43h-12.84l-7.76,39.85c-1.1,5.57.79,8.36,5.67,8.36l5.97-.3-2.84,14.93c-3.38.3-6.42.45-9.1.45-8.06,0-13.73-1.67-17.02-5-3.28-3.33-4.18-8.83-2.69-16.49l8.21-41.79h-9.7Z"/>
    <path class="st1" d="M719.98,352.62l3.13-15.82h6.42c8.86,0,13.28-4.73,13.28-14.18,0-3.48-.85-9.2-2.54-17.17l-11.04-54.48h20.9l5.22,34.78,2.24,17.31h.3c2.49-6.77,4.83-12.54,7.02-17.31l15.82-34.78h20.3l-39.55,80.3c-3.88,7.96-7.89,13.51-12.02,16.64-4.13,3.13-9.78,4.7-16.94,4.7h-12.54Z"/>
  </g>
  <text class="st0" transform="translate(504.94 368.79)"><tspan x="0" y="0">LOGISTICS</tspan></text>
</svg>
